<svg version="1.1" id="Layer_1" xmlns="http://www.w3.org/2000/svg" xmlns:xlink="http://www.w3.org/1999/xlink" x="0px" y="0px"
	 width="100%" viewBox="0 0 1950 2161" enable-background="new 0 0 1950 2161" xml:space="preserve">
<path fill="#000000" opacity="1.000000" stroke="none" 
	d="
M1158.000000,2.000000 
	C1422.606934,2.000000 1687.213745,2.000000 1951.910400,2.000000 
	C1951.910400,722.444153 1951.910400,1442.888306 1951.910400,2164.000000 
	C1689.281982,2164.000000 1426.563477,2164.000000 1162.157227,2163.346680 
	C1164.638306,2157.671387 1170.439453,2160.495361 1175.429077,2159.789795 
	C1209.296997,2154.999512 1243.366699,2151.457520 1277.073242,2145.751709 
	C1317.720947,2138.870361 1357.852905,2129.352295 1397.027222,2116.224365 
	C1464.416748,2093.640869 1528.679077,2064.341064 1589.179077,2026.915405 
	C1631.458374,2000.761230 1670.923828,1970.900635 1707.097534,1936.820068 
	C1745.253662,1900.871826 1778.439697,1860.770996 1806.871216,1816.639648 
	C1830.342529,1780.207275 1836.802246,1741.839111 1821.874756,1700.809204 
	C1797.332764,1633.351562 1725.356445,1601.727295 1659.182251,1635.775635 
	C1638.367310,1646.485474 1624.001465,1663.583740 1612.159790,1683.397583 
	C1598.683960,1705.945435 1585.076416,1728.459351 1570.443481,1750.261353 
	C1539.514648,1796.343018 1502.347168,1836.874390 1459.802368,1872.591064 
	C1413.664062,1911.324097 1362.826660,1942.697510 1309.173096,1969.609497 
	C1260.072510,1994.237915 1209.270752,2014.771729 1156.669067,2030.829834 
	C1074.705811,2055.851074 990.862488,2068.980225 905.251831,2069.748047 
	C874.722717,2070.021973 844.061401,2068.473633 813.644592,2065.721191 
	C743.909607,2059.410400 675.783447,2044.706421 609.169617,2023.092529 
	C554.358276,2005.308105 501.512634,1982.798706 449.817322,1956.350830 
	C447.441956,1954.946533 445.361481,1954.015503 443.281006,1953.084473 
	C442.970886,1953.695190 442.660767,1954.305908 442.350616,1954.916626 
	C444.956512,1956.513428 447.562378,1958.110352 450.745850,1960.059692 
	C500.002502,1996.124390 551.819458,2026.590454 605.903015,2053.338135 
	C662.395569,2081.277344 720.955322,2103.832520 781.474976,2121.293213 
	C844.572998,2139.497559 908.767700,2152.091064 974.212646,2158.052734 
	C982.153748,2158.776123 990.106812,2159.367432 998.048584,2160.084717 
	C1000.845764,2160.337402 1000.837769,2160.426025 1002.000000,2164.000000 
	C668.806396,2164.000000 335.612854,2164.000000 2.000000,2164.000000 
	C2.000000,1825.948486 2.000000,1487.896729 2.791010,1149.058838 
	C4.310301,1150.348145 5.491676,1152.380127 5.694234,1154.505615 
	C7.142963,1169.707275 8.363742,1184.930420 9.710718,1200.141968 
	C13.177578,1239.293335 19.993116,1277.954590 28.654055,1316.206299 
	C50.144508,1411.120361 83.396072,1501.764160 128.584686,1588.069946 
	C160.022598,1648.113159 196.258850,1704.974731 237.972198,1758.355225 
	C273.282928,1803.542358 311.936157,1845.642944 354.873901,1883.718262 
	C360.799591,1888.973022 367.291504,1893.589111 373.778625,1898.907227 
	C374.432281,1899.840698 374.932831,1900.235474 375.860992,1900.870728 
	C376.704376,1901.678345 377.300049,1901.942871 378.103271,1902.313599 
	C378.444733,1902.647583 378.654175,1902.705200 378.863586,1902.762939 
	C378.609680,1902.477173 378.355804,1902.191284 378.081665,1901.384033 
	C377.640076,1900.318848 377.218689,1899.774902 376.552185,1898.813843 
	C375.874908,1897.914429 375.380280,1897.508057 374.557861,1896.562622 
	C345.295319,1863.764038 318.288391,1829.989136 293.380585,1794.545898 
	C244.949295,1725.629517 203.875778,1652.595947 170.776016,1575.111450 
	C147.572739,1520.793945 128.682205,1464.995239 114.662407,1407.635498 
	C104.152664,1364.636353 96.518059,1321.109741 91.351822,1277.068604 
	C86.964195,1239.664795 86.058861,1202.143677 84.349510,1164.634033 
	C83.973839,1156.390259 85.370041,1148.075928 85.759644,1139.785034 
	C86.493301,1124.172852 86.497269,1108.501953 87.870857,1092.949707 
	C90.297607,1065.472900 92.465935,1037.904785 96.634102,1010.664429 
	C105.407204,953.328979 118.896461,897.072571 138.136780,842.234314 
	C156.942780,788.633850 180.374176,737.245972 209.110275,688.230530 
	C239.377441,636.603516 274.797150,588.770081 315.170471,544.697144 
	C339.690002,517.930664 365.888824,492.820404 393.548798,469.192963 
	C446.471985,423.985352 503.756073,385.231598 565.170654,352.707062 
	C643.858032,311.034882 726.570068,279.921875 813.609497,260.577179 
	C854.291016,251.535599 895.377502,244.668182 936.957886,242.821747 
	C976.513611,241.065201 1016.157104,241.099716 1055.789795,243.760681 
	C1091.025513,246.126450 1125.987549,250.049469 1160.837769,255.675613 
	C1236.938110,267.961090 1309.978027,290.286438 1380.002319,322.287750 
	C1462.677734,360.070740 1537.561401,410.051331 1606.297241,469.341858 
	C1632.095459,491.594971 1662.093018,503.372772 1695.788574,503.752930 
	C1738.734375,504.237427 1775.220947,488.017578 1803.358765,455.338226 
	C1827.615234,427.166473 1837.847290,393.885742 1833.160889,356.949738 
	C1828.385742,319.314240 1811.531494,287.204315 1784.283081,260.860168 
	C1773.534790,250.468399 1762.039795,240.789673 1750.391357,231.398422 
	C1697.057007,188.398773 1639.830078,151.284302 1579.022217,119.779175 
	C1517.017212,87.653938 1452.354248,62.166702 1385.099487,43.239864 
	C1338.239258,30.052465 1290.811157,19.603857 1242.497559,13.586892 
	C1216.440918,10.341805 1190.251587,8.163575 1164.124023,5.485462 
	C1161.598877,5.226624 1158.509766,5.847765 1158.000000,2.000000 
M383.941864,1637.554932 
	C382.233246,1635.631714 380.524628,1633.708496 378.815979,1631.785400 
	C378.282440,1632.242310 377.748901,1632.699219 377.215332,1633.156128 
	C379.445221,1636.142944 381.675110,1639.129761 384.444702,1643.323120 
	C387.419708,1647.059326 390.394745,1650.795410 393.937225,1655.769531 
	C396.516846,1659.240356 399.086029,1662.719116 401.677673,1666.180908 
	C432.263550,1707.037598 466.079163,1745.005371 504.023041,1779.159302 
	C530.733704,1803.202026 559.099182,1825.199585 588.770020,1845.519409 
	C619.295105,1866.423950 650.845825,1885.357544 684.901855,1900.143066 
	C753.285217,1929.831787 824.905884,1946.050781 898.968018,1951.148315 
	C935.446167,1953.658936 972.117310,1953.448242 1008.648254,1949.660767 
	C1055.917725,1944.759888 1101.424561,1932.863892 1145.369873,1915.091919 
	C1246.195435,1874.316406 1330.316650,1810.855225 1398.813232,1726.622314 
	C1427.737671,1691.052979 1438.218872,1650.225098 1429.644653,1605.131470 
	C1424.866699,1580.002930 1413.304810,1558.233154 1393.334717,1541.452881 
	C1367.247192,1519.532715 1336.660767,1512.926392 1303.716553,1515.986572 
	C1274.506470,1518.699707 1250.513672,1532.384888 1232.167236,1555.091919 
	C1217.959351,1572.676514 1204.744629,1591.065186 1191.144287,1609.138550 
	C1163.484619,1645.895508 1133.605469,1680.581543 1098.368652,1710.429321 
	C1053.187988,1748.699707 1002.462830,1777.258667 947.117676,1797.915649 
	C899.489746,1815.692261 850.344666,1826.676636 799.587097,1829.223145 
	C775.053589,1830.453979 750.483765,1829.233643 725.925415,1826.413574 
	C671.842102,1820.203491 620.563416,1804.712769 571.690491,1781.307861 
	C504.378357,1749.072754 445.133759,1705.617065 393.866028,1649.663452 
	C390.680511,1646.005493 387.495026,1642.347534 383.941864,1637.554932 
M239.315872,1336.884277 
	C236.498932,1331.221313 233.681992,1325.558350 230.865051,1319.895264 
	C230.184692,1320.206787 229.504333,1320.518188 228.823975,1320.829590 
	C231.724884,1327.331055 234.625809,1333.832397 237.889084,1341.753418 
	C249.846832,1366.610474 260.939941,1391.930908 273.959320,1416.218872 
	C294.956024,1455.388672 321.859375,1490.549072 351.380951,1523.668823 
	C375.820007,1551.086792 402.596252,1575.896851 433.152893,1596.553833 
	C477.615936,1626.611938 525.695679,1648.865112 576.913391,1664.560059 
	C607.499390,1673.932617 638.690430,1680.837036 670.546265,1683.312256 
	C717.954468,1686.996094 764.875732,1682.646484 811.030457,1670.986328 
	C863.384888,1657.760010 912.453247,1636.760620 957.940308,1607.672974 
	C975.023376,1596.749023 992.473694,1586.051147 1006.325684,1570.909058 
	C1030.552856,1544.425659 1041.968140,1513.415527 1036.188843,1477.499023 
	C1028.291626,1428.420288 987.010132,1405.714355 946.728333,1404.594360 
	C927.524414,1404.060425 909.499146,1410.911621 894.113892,1423.186768 
	C887.097778,1428.784424 880.098938,1434.407104 873.201538,1440.149658 
	C837.585205,1469.802979 800.916077,1497.800537 758.728088,1517.876343 
	C710.902710,1540.634644 660.385193,1552.382080 607.805298,1555.303711 
	C589.630859,1556.313721 571.269653,1555.279053 553.062012,1554.112427 
	C509.383148,1551.314331 468.060333,1539.200195 428.739990,1520.326172 
	C381.368347,1497.587402 340.585266,1466.001221 304.948547,1427.456177 
	C279.740021,1400.190186 257.828857,1370.626343 239.315872,1336.884277 
M1230.573364,394.228729 
	C1151.849609,369.229889 1070.855347,359.323944 988.596558,358.089233 
	C976.643860,357.909790 964.675232,359.253296 952.710510,359.327332 
	C922.366272,359.515167 892.181946,362.168671 862.230591,366.488525 
	C785.471191,377.559509 712.408997,400.323517 643.709717,436.819275 
	C592.510681,464.018188 545.679810,497.289062 502.913147,536.261230 
	C473.838867,562.755981 447.148895,591.566101 422.293701,622.102417 
	C380.718933,673.179871 345.145905,728.151367 314.764648,786.514954 
	C295.672760,823.191406 279.143890,861.022400 265.098145,899.912415 
	C249.118271,944.157532 236.737000,989.349731 230.507492,1036.068848 
	C229.143219,1046.300537 228.613190,1056.643555 227.698959,1066.935303 
	C234.510788,1046.181885 239.614639,1025.174194 246.511749,1004.772949 
	C262.920288,956.237488 286.410797,911.090332 314.765015,868.500732 
	C352.456238,811.886353 397.404999,761.690247 449.263458,717.669006 
	C527.353455,651.380432 615.172058,603.294739 714.264160,576.561829 
	C762.982300,563.418762 812.609863,556.371887 863.173340,555.919312 
	C903.576416,555.557678 943.539917,559.263489 983.390808,565.772278 
	C1064.001465,578.938049 1139.241943,606.230347 1207.691895,650.950317 
	C1235.824219,669.329956 1262.581055,689.806274 1290.141602,709.074097 
	C1305.397339,719.739502 1322.282837,726.610962 1341.010132,728.083801 
	C1380.835571,731.216003 1415.224243,719.338257 1443.275513,690.439514 
	C1469.115234,663.819336 1478.993774,631.464905 1475.195679,595.229004 
	C1471.898071,563.769165 1457.521362,536.880310 1436.477539,513.529480 
	C1414.172119,488.778870 1387.192505,469.806000 1359.109131,452.431427 
	C1319.272583,427.785400 1276.654297,409.050903 1230.573364,394.228729 
z"/>
<path fill="#102B72" opacity="1.000000" stroke="none" 
	d="
M373.521240,1898.500977 
	C367.291504,1893.589111 360.799591,1888.973022 354.873901,1883.718262 
	C311.936157,1845.642944 273.282928,1803.542358 237.972198,1758.355225 
	C196.258850,1704.974731 160.022598,1648.113159 128.584686,1588.069946 
	C83.396072,1501.764160 50.144508,1411.120361 28.654055,1316.206299 
	C19.993116,1277.954590 13.177578,1239.293335 9.710718,1200.141968 
	C8.363742,1184.930420 7.142963,1169.707275 5.694234,1154.505615 
	C5.491676,1152.380127 4.310301,1150.348145 2.791010,1148.136475 
	C2.000000,1105.958252 2.000000,1063.916382 2.790397,1020.802612 
	C4.287239,1018.320557 5.486449,1016.955383 5.619886,1015.492981 
	C6.465234,1006.229126 6.657011,996.890259 7.837604,987.675232 
	C11.975636,955.376038 15.350254,922.927429 20.990023,890.883240 
	C31.913891,828.815857 48.280289,768.045593 70.663948,709.116211 
	C84.363388,673.049744 98.894836,637.194153 115.199348,602.245422 
	C144.451645,539.543152 181.951843,481.777771 224.712570,427.394012 
	C261.826294,380.192139 302.500610,336.347015 346.611053,295.602875 
	C379.905029,264.849762 414.706146,236.002502 451.309998,209.282944 
	C509.014923,167.160309 569.780090,130.216644 634.385620,99.587868 
	C688.731689,73.823044 745.203979,54.140007 803.321533,38.929920 
	C848.132690,27.202286 893.496460,18.222858 939.411499,12.311764 
	C963.133240,9.257823 987.052917,7.745606 1010.878357,5.486441 
	C1013.630554,5.225474 1017.217773,6.396859 1018.000000,2.000000 
	C1064.041748,2.000000 1110.083618,2.000000 1157.062744,2.000000 
	C1158.509766,5.847765 1161.598877,5.226624 1164.124023,5.485462 
	C1190.251587,8.163575 1216.440918,10.341805 1242.497559,13.586892 
	C1290.811157,19.603857 1338.239258,30.052465 1385.099487,43.239864 
	C1452.354248,62.166702 1517.017212,87.653938 1579.022217,119.779175 
	C1639.830078,151.284302 1697.057007,188.398773 1750.391357,231.398422 
	C1762.039795,240.789673 1773.534790,250.468399 1784.283081,260.860168 
	C1811.531494,287.204315 1828.385742,319.314240 1833.160889,356.949738 
	C1837.847290,393.885742 1827.615234,427.166473 1803.358765,455.338226 
	C1775.220947,488.017578 1738.734375,504.237427 1695.788574,503.752930 
	C1662.093018,503.372772 1632.095459,491.594971 1606.297241,469.341858 
	C1537.561401,410.051331 1462.677734,360.070740 1380.002319,322.287750 
	C1309.978027,290.286438 1236.938110,267.961090 1160.837769,255.675613 
	C1125.987549,250.049469 1091.025513,246.126450 1055.789795,243.760681 
	C1016.157104,241.099716 976.513611,241.065201 936.957886,242.821747 
	C895.377502,244.668182 854.291016,251.535599 813.609497,260.577179 
	C726.570068,279.921875 643.858032,311.034882 565.170654,352.707062 
	C503.756073,385.231598 446.471985,423.985352 393.548798,469.192963 
	C365.888824,492.820404 339.690002,517.930664 315.170471,544.697144 
	C274.797150,588.770081 239.377441,636.603516 209.110275,688.230530 
	C180.374176,737.245972 156.942780,788.633850 138.136780,842.234314 
	C118.896461,897.072571 105.407204,953.328979 96.634102,1010.664429 
	C92.465935,1037.904785 90.297607,1065.472900 87.870857,1092.949707 
	C86.497269,1108.501953 86.493301,1124.172852 85.759644,1139.785034 
	C85.370041,1148.075928 83.973839,1156.390259 84.349510,1164.634033 
	C86.058861,1202.143677 86.964195,1239.664795 91.351822,1277.068604 
	C96.518059,1321.109741 104.152664,1364.636353 114.662407,1407.635498 
	C128.682205,1464.995239 147.572739,1520.793945 170.776016,1575.111450 
	C203.875778,1652.595947 244.949295,1725.629517 293.380585,1794.545898 
	C318.288391,1829.989136 345.295319,1863.764038 374.230469,1896.891602 
	C374.168335,1897.835571 373.521240,1898.500977 373.521240,1898.500977 
z"/>
<path fill="#000000" opacity="1.000000" stroke="none" 
	d="
M1017.062683,2.000000 
	C1017.217773,6.396859 1013.630554,5.225474 1010.878357,5.486441 
	C987.052917,7.745606 963.133240,9.257823 939.411499,12.311764 
	C893.496460,18.222858 848.132690,27.202286 803.321533,38.929920 
	C745.203979,54.140007 688.731689,73.823044 634.385620,99.587868 
	C569.780090,130.216644 509.014923,167.160309 451.309998,209.282944 
	C414.706146,236.002502 379.905029,264.849762 346.611053,295.602875 
	C302.500610,336.347015 261.826294,380.192139 224.712570,427.394012 
	C181.951843,481.777771 144.451645,539.543152 115.199348,602.245422 
	C98.894836,637.194153 84.363388,673.049744 70.663948,709.116211 
	C48.280289,768.045593 31.913891,828.815857 20.990023,890.883240 
	C15.350254,922.927429 11.975636,955.376038 7.837604,987.675232 
	C6.657011,996.890259 6.465234,1006.229126 5.619886,1015.492981 
	C5.486449,1016.955383 4.287239,1018.320557 2.790397,1019.865356 
	C2.000000,680.812622 2.000000,341.625183 2.000000,2.000000 
	C340.041656,2.000000 678.083496,2.000000 1017.062683,2.000000 
z"/>
<path fill="#3CBEC0" opacity="1.000000" stroke="none" 
	d="
M450.112183,1956.823975 
	C501.512634,1982.798706 554.358276,2005.308105 609.169617,2023.092529 
	C675.783447,2044.706421 743.909607,2059.410400 813.644592,2065.721191 
	C844.061401,2068.473633 874.722717,2070.021973 905.251831,2069.748047 
	C990.862488,2068.980225 1074.705811,2055.851074 1156.669067,2030.829834 
	C1209.270752,2014.771729 1260.072510,1994.237915 1309.173096,1969.609497 
	C1362.826660,1942.697510 1413.664062,1911.324097 1459.802368,1872.591064 
	C1502.347168,1836.874390 1539.514648,1796.343018 1570.443481,1750.261353 
	C1585.076416,1728.459351 1598.683960,1705.945435 1612.159790,1683.397583 
	C1624.001465,1663.583740 1638.367310,1646.485474 1659.182251,1635.775635 
	C1725.356445,1601.727295 1797.332764,1633.351562 1821.874756,1700.809204 
	C1836.802246,1741.839111 1830.342529,1780.207275 1806.871216,1816.639648 
	C1778.439697,1860.770996 1745.253662,1900.871826 1707.097534,1936.820068 
	C1670.923828,1970.900635 1631.458374,2000.761230 1589.179077,2026.915405 
	C1528.679077,2064.341064 1464.416748,2093.640869 1397.027222,2116.224365 
	C1357.852905,2129.352295 1317.720947,2138.870361 1277.073242,2145.751709 
	C1243.366699,2151.457520 1209.296997,2154.999512 1175.429077,2159.789795 
	C1170.439453,2160.495361 1164.638306,2157.671387 1161.234741,2163.346680 
	C1109.291504,2164.000000 1056.583130,2164.000000 1002.937317,2164.000000 
	C1000.837769,2160.426025 1000.845764,2160.337402 998.048584,2160.084717 
	C990.106812,2159.367432 982.153748,2158.776123 974.212646,2158.052734 
	C908.767700,2152.091064 844.572998,2139.497559 781.474976,2121.293213 
	C720.955322,2103.832520 662.395569,2081.277344 605.903015,2053.338135 
	C551.819458,2026.590454 500.002502,1996.124390 450.804871,1959.337524 
	C450.228180,1957.783325 450.170166,1957.303589 450.112183,1956.823975 
z"/>
<path fill="#036667" opacity="1.000000" stroke="none" 
	d="
M1231.328003,394.474365 
	C1276.654297,409.050903 1319.272583,427.785400 1359.109131,452.431427 
	C1387.192505,469.806000 1414.172119,488.778870 1436.477539,513.529480 
	C1457.521362,536.880310 1471.898071,563.769165 1475.195679,595.229004 
	C1478.993774,631.464905 1469.115234,663.819336 1443.275513,690.439514 
	C1415.224243,719.338257 1380.835571,731.216003 1341.010132,728.083801 
	C1322.282837,726.610962 1305.397339,719.739502 1290.141602,709.074097 
	C1262.581055,689.806274 1235.824219,669.329956 1207.691895,650.950317 
	C1139.241943,606.230347 1064.001465,578.938049 983.390808,565.772278 
	C943.539917,559.263489 903.576416,555.557678 863.173340,555.919312 
	C812.609863,556.371887 762.982300,563.418762 714.264160,576.561829 
	C615.172058,603.294739 527.353455,651.380432 449.263458,717.669006 
	C397.404999,761.690247 352.456238,811.886353 314.765015,868.500732 
	C286.410797,911.090332 262.920288,956.237488 246.511749,1004.772949 
	C239.614639,1025.174194 234.510788,1046.181885 227.698959,1066.935303 
	C228.613190,1056.643555 229.143219,1046.300537 230.507492,1036.068848 
	C236.737000,989.349731 249.118271,944.157532 265.098145,899.912415 
	C279.143890,861.022400 295.672760,823.191406 314.764648,786.514954 
	C345.145905,728.151367 380.718933,673.179871 422.293701,622.102417 
	C447.148895,591.566101 473.838867,562.755981 502.913147,536.261230 
	C545.679810,497.289062 592.510681,464.018188 643.709717,436.819275 
	C712.408997,400.323517 785.471191,377.559509 862.230591,366.488525 
	C892.181946,362.168671 922.366272,359.515167 952.710510,359.327332 
	C964.675232,359.253296 976.643860,357.909790 988.596558,358.089233 
	C1070.855347,359.323944 1151.849609,369.229889 1231.328003,394.474365 
z"/>
<path fill="#FEDA01" opacity="1.000000" stroke="none" 
	d="
M394.296692,1650.853760 
	C445.133759,1705.617065 504.378357,1749.072754 571.690491,1781.307861 
	C620.563416,1804.712769 671.842102,1820.203491 725.925415,1826.413574 
	C750.483765,1829.233643 775.053589,1830.453979 799.587097,1829.223145 
	C850.344666,1826.676636 899.489746,1815.692261 947.117676,1797.915649 
	C1002.462830,1777.258667 1053.187988,1748.699707 1098.368652,1710.429321 
	C1133.605469,1680.581543 1163.484619,1645.895508 1191.144287,1609.138550 
	C1204.744629,1591.065186 1217.959351,1572.676514 1232.167236,1555.091919 
	C1250.513672,1532.384888 1274.506470,1518.699707 1303.716553,1515.986572 
	C1336.660767,1512.926392 1367.247192,1519.532715 1393.334717,1541.452881 
	C1413.304810,1558.233154 1424.866699,1580.002930 1429.644653,1605.131470 
	C1438.218872,1650.225098 1427.737671,1691.052979 1398.813232,1726.622314 
	C1330.316650,1810.855225 1246.195435,1874.316406 1145.369873,1915.091919 
	C1101.424561,1932.863892 1055.917725,1944.759888 1008.648254,1949.660767 
	C972.117310,1953.448242 935.446167,1953.658936 898.968018,1951.148315 
	C824.905884,1946.050781 753.285217,1929.831787 684.901855,1900.143066 
	C650.845825,1885.357544 619.295105,1866.423950 588.770020,1845.519409 
	C559.099182,1825.199585 530.733704,1803.202026 504.023041,1779.159302 
	C466.079163,1745.005371 432.263550,1707.037598 401.677673,1666.180908 
	C399.086029,1662.719116 396.516846,1659.240356 393.824158,1654.216064 
	C393.906311,1652.059692 394.101501,1651.456665 394.296692,1650.853760 
z"/>
<path fill="#FB9801" opacity="1.000000" stroke="none" 
	d="
M239.705750,1338.235352 
	C257.828857,1370.626343 279.740021,1400.190186 304.948547,1427.456177 
	C340.585266,1466.001221 381.368347,1497.587402 428.739990,1520.326172 
	C468.060333,1539.200195 509.383148,1551.314331 553.062012,1554.112427 
	C571.269653,1555.279053 589.630859,1556.313721 607.805298,1555.303711 
	C660.385193,1552.382080 710.902710,1540.634644 758.728088,1517.876343 
	C800.916077,1497.800537 837.585205,1469.802979 873.201538,1440.149658 
	C880.098938,1434.407104 887.097778,1428.784424 894.113892,1423.186768 
	C909.499146,1410.911621 927.524414,1404.060425 946.728333,1404.594360 
	C987.010132,1405.714355 1028.291626,1428.420288 1036.188843,1477.499023 
	C1041.968140,1513.415527 1030.552856,1544.425659 1006.325684,1570.909058 
	C992.473694,1586.051147 975.023376,1596.749023 957.940308,1607.672974 
	C912.453247,1636.760620 863.384888,1657.760010 811.030457,1670.986328 
	C764.875732,1682.646484 717.954468,1686.996094 670.546265,1683.312256 
	C638.690430,1680.837036 607.499390,1673.932617 576.913391,1664.560059 
	C525.695679,1648.865112 477.615936,1626.611938 433.152893,1596.553833 
	C402.596252,1575.896851 375.820007,1551.086792 351.380951,1523.668823 
	C321.859375,1490.549072 294.956024,1455.388672 273.959320,1416.218872 
	C260.939941,1391.930908 249.846832,1366.610474 238.031631,1340.646973 
	C238.684708,1339.105469 239.195236,1338.670410 239.705750,1338.235352 
z"/>
<path fill="#935A00" opacity="1.000000" stroke="none" 
	d="
M239.510803,1337.559814 
	C239.195236,1338.670410 238.684708,1339.105469 237.850449,1339.937256 
	C234.625809,1333.832397 231.724884,1327.331055 228.823975,1320.829590 
	C229.504333,1320.518188 230.184692,1320.206787 230.865051,1319.895264 
	C233.681992,1325.558350 236.498932,1331.221313 239.510803,1337.559814 
z"/>
<path fill="#A89700" opacity="1.000000" stroke="none" 
	d="
M394.081360,1650.258545 
	C394.101501,1651.456665 393.906311,1652.059692 393.540436,1653.597046 
	C390.394745,1650.795410 387.419708,1647.059326 384.295898,1641.865479 
	C384.201233,1639.835083 384.255371,1639.262329 384.309509,1638.689575 
	C387.495026,1642.347534 390.680511,1646.005493 394.081360,1650.258545 
z"/>
<path fill="#817100" opacity="1.000000" stroke="none" 
	d="
M384.125671,1638.122314 
	C384.255371,1639.262329 384.201233,1639.835083 384.026062,1641.262207 
	C381.675110,1639.129761 379.445221,1636.142944 377.215332,1633.156128 
	C377.748901,1632.699219 378.282440,1632.242310 378.815979,1631.785400 
	C380.524628,1633.708496 382.233246,1635.631714 384.125671,1638.122314 
z"/>
<path fill="#227778" opacity="1.000000" stroke="none" 
	d="
M449.817322,1956.350830 
	C450.170166,1957.303589 450.228180,1957.783325 450.227234,1958.985107 
	C447.562378,1958.110352 444.956512,1956.513428 442.350616,1954.916626 
	C442.660767,1954.305908 442.970886,1953.695190 443.281006,1953.084473 
	C445.361481,1954.015503 447.441956,1954.946533 449.817322,1956.350830 
z"/>
<path fill="#102B72" opacity="1.000000" stroke="none" 
	d="
M374.495728,1897.506592 
	C375.380280,1897.508057 375.874908,1897.914429 376.234436,1899.127686 
	C376.161835,1899.858521 375.537750,1900.497803 375.537750,1900.497803 
	C374.932831,1900.235474 374.432281,1899.840698 373.778656,1898.907227 
	C373.521240,1898.500977 374.168335,1897.835571 374.495728,1897.506592 
z"/>
<path fill="#102B72" opacity="1.000000" stroke="none" 
	d="
M376.479553,1899.544678 
	C377.218689,1899.774902 377.640076,1900.318848 378.047607,1901.416016 
	C378.033752,1901.969238 377.971252,1902.037354 377.971252,1902.037354 
	C377.300049,1901.942871 376.704376,1901.678345 375.860992,1900.870728 
	C375.537750,1900.497803 376.161835,1899.858521 376.479553,1899.544678 
z"/>
<path fill="#102B72" opacity="1.000000" stroke="none" 
	d="
M378.067810,1901.937256 
	C378.355804,1902.191284 378.609680,1902.477173 378.863586,1902.762939 
	C378.654175,1902.705200 378.444733,1902.647583 378.103271,1902.313599 
	C377.971252,1902.037354 378.033752,1901.969238 378.067810,1901.937256 
z"/>
</svg>