<svg version="1.1" id="Layer_1" xmlns="http://www.w3.org/2000/svg" xmlns:xlink="http://www.w3.org/1999/xlink" x="0px" y="0px"
	 width="100%" viewBox="0 0 512 512" enable-background="new 0 0 512 512" xml:space="preserve">
<path fill="#000000" opacity="1.000000" stroke="none" 
	d="
M513.000000,198.000000 
	C513.000000,303.307739 513.000000,408.115479 513.000000,512.961609 
	C342.400574,512.961609 171.801163,512.961609 1.100867,512.961609 
	C1.100867,342.442291 1.100867,171.884491 1.100867,1.163351 
	C171.666534,1.163351 342.333252,1.163351 513.000000,1.163351 
	C513.000000,66.532135 513.000000,132.016068 513.000000,198.000000 
M366.331177,489.838715 
	C378.690460,482.652588 390.922119,475.231934 403.474213,468.400055 
	C408.247131,465.802216 410.102905,462.620972 410.066010,457.324493 
	C409.898834,433.329956 409.304718,409.304779 410.308014,385.351105 
	C410.753357,374.718750 406.849701,368.828613 397.915039,364.924927 
	C396.999908,364.525146 396.085449,364.107391 395.221161,363.610168 
	C377.206787,353.246613 359.172516,342.916809 341.236481,332.419220 
	C339.584137,331.452148 338.567169,329.399506 337.255188,327.850952 
	C339.119629,327.231689 340.980499,326.086792 342.849060,326.074158 
	C362.344666,325.941895 381.841583,326.018524 401.337982,325.975464 
	C407.942657,325.960876 409.954285,323.923981 409.977417,317.286194 
	C410.024445,303.788788 410.123047,290.289490 409.954620,276.794006 
	C409.801117,264.494171 410.135468,252.109482 408.802063,239.921127 
	C406.654480,220.290665 396.934814,203.874832 382.825073,190.598740 
	C366.351288,175.098328 346.579407,164.880630 324.760406,158.740524 
	C319.787689,157.341156 314.850159,155.816742 309.587189,154.258316 
	C349.178497,120.807816 350.316559,66.554817 319.324677,31.989830 
	C289.272461,-1.527126 235.658966,-5.508254 200.344971,26.336081 
	C184.102158,40.983009 174.851196,59.738861 173.240723,81.443314 
	C171.072922,110.659317 181.901260,134.978638 204.483658,154.429779 
	C202.588699,155.000076 201.213486,155.476639 199.807022,155.828003 
	C170.714920,163.095581 144.257202,175.051544 124.179771,198.342529 
	C111.675468,212.848221 104.684113,229.781738 104.155197,248.816742 
	C103.530594,271.295349 103.997391,293.804596 104.012909,316.300568 
	C104.018364,324.212708 105.782333,325.979370 113.677910,325.986633 
	C132.841110,326.004272 152.004730,325.941315 171.167023,326.074890 
	C173.031265,326.087830 174.887558,327.242218 176.747528,327.866730 
	C175.431580,329.414154 174.398911,331.428589 172.750763,332.428436 
	C165.502808,336.825317 158.056671,340.893951 150.720169,345.146759 
	C136.634476,353.311951 122.582024,361.534515 108.497597,369.701904 
	C105.528252,371.423767 103.939804,373.661041 103.953949,377.336517 
	C104.058441,404.497894 104.037552,431.659943 103.982559,458.821594 
	C103.974258,462.921997 105.622185,465.600861 109.223633,467.666138 
	C129.985046,479.571838 150.636780,491.668640 171.366257,503.630371 
	C177.657516,507.260681 183.487366,511.322235 191.551300,506.403870 
	C210.986862,494.549774 230.946777,483.558167 250.473572,471.849060 
	C255.331543,468.936035 258.978149,469.181396 263.707703,471.983521 
	C283.875488,483.932281 304.256897,495.520447 324.561554,507.238098 
	C328.688385,509.619629 332.541351,509.465668 336.745880,506.910553 
	C346.265656,501.125336 356.010956,495.711182 366.331177,489.838715 
z"/>
<path fill="#262423" opacity="1.000000" stroke="none" 
	d="
M365.997864,489.992432 
	C356.010956,495.711182 346.265656,501.125336 336.745880,506.910553 
	C332.541351,509.465668 328.688385,509.619629 324.561554,507.238098 
	C304.256897,495.520447 283.875488,483.932281 263.707703,471.983521 
	C258.978149,469.181396 255.331543,468.936035 250.473572,471.849060 
	C230.946777,483.558167 210.986862,494.549774 191.551300,506.403870 
	C183.487366,511.322235 177.657516,507.260681 171.366257,503.630371 
	C150.636780,491.668640 129.985046,479.571838 109.223633,467.666138 
	C105.622185,465.600861 103.974258,462.921997 103.982559,458.821594 
	C104.037552,431.659943 104.058441,404.497894 103.953949,377.336517 
	C103.939804,373.661041 105.528252,371.423767 108.497597,369.701904 
	C122.582024,361.534515 136.634476,353.311951 150.720169,345.146759 
	C158.056671,340.893951 165.502808,336.825317 172.750763,332.428436 
	C174.398911,331.428589 175.431580,329.414154 176.747528,327.866730 
	C174.887558,327.242218 173.031265,326.087830 171.167023,326.074890 
	C152.004730,325.941315 132.841110,326.004272 113.677910,325.986633 
	C105.782333,325.979370 104.018364,324.212708 104.012909,316.300568 
	C103.997391,293.804596 103.530594,271.295349 104.155197,248.816742 
	C104.684113,229.781738 111.675468,212.848221 124.179771,198.342529 
	C144.257202,175.051544 170.714920,163.095581 199.807022,155.828003 
	C201.213486,155.476639 202.588699,155.000076 204.483658,154.429779 
	C181.901260,134.978638 171.072922,110.659317 173.240723,81.443314 
	C174.851196,59.738861 184.102158,40.983009 200.344971,26.336081 
	C235.658966,-5.508254 289.272461,-1.527126 319.324677,31.989830 
	C350.316559,66.554817 349.178497,120.807816 309.587189,154.258316 
	C314.850159,155.816742 319.787689,157.341156 324.760406,158.740524 
	C346.579407,164.880630 366.351288,175.098328 382.825073,190.598740 
	C396.934814,203.874832 406.654480,220.290665 408.802063,239.921127 
	C410.135468,252.109482 409.801117,264.494171 409.954620,276.794006 
	C410.123047,290.289490 410.024445,303.788788 409.977417,317.286194 
	C409.954285,323.923981 407.942657,325.960876 401.337982,325.975464 
	C381.841583,326.018524 362.344666,325.941895 342.849060,326.074158 
	C340.980499,326.086792 339.119629,327.231689 337.255188,327.850952 
	C338.567169,329.399506 339.584137,331.452148 341.236481,332.419220 
	C359.172516,342.916809 377.206787,353.246613 395.221161,363.610168 
	C396.085449,364.107391 396.999908,364.525146 397.915039,364.924927 
	C406.849701,368.828613 410.753357,374.718750 410.308014,385.351105 
	C409.304718,409.304779 409.898834,433.329956 410.066010,457.324493 
	C410.102905,462.620972 408.247131,465.802216 403.474213,468.400055 
	C390.922119,475.231934 378.690460,482.652588 365.997864,489.992432 
M265.913910,159.299026 
	C309.022705,154.921448 338.224823,110.105911 325.461365,67.913589 
	C317.146454,40.426826 291.140839,18.860229 264.339691,17.394518 
	C229.859314,14.012310 197.920364,35.467976 188.320801,68.461769 
	C178.692810,101.553391 194.125809,137.044952 224.975220,152.374420 
	C237.603073,158.649384 250.910599,161.566299 265.913910,159.299026 
M229.542038,167.435730 
	C226.256729,166.408630 222.757431,164.066635 219.719742,164.561020 
	C193.800766,168.779388 169.252304,176.801239 148.059082,192.982727 
	C129.394577,207.233459 117.475258,225.617554 116.619965,249.529007 
	C115.882095,270.157440 116.451088,290.832764 116.472450,311.487335 
	C116.472908,311.932037 116.837944,312.376373 117.139656,313.064240 
	C131.727264,313.064240 146.355118,313.064240 161.907135,313.242371 
	C167.010742,313.242371 172.114365,313.242371 177.779846,313.242371 
	C177.779846,310.816528 177.779846,309.022858 177.779861,307.229156 
	C177.779938,289.076050 177.961105,270.920044 177.669128,252.771606 
	C177.582108,247.362839 179.552139,244.352600 184.192337,241.732590 
	C206.506393,229.133209 228.693588,216.304794 250.775558,203.302475 
	C255.222900,200.683777 258.763916,200.647232 263.204193,203.254990 
	C285.588806,216.401505 308.082306,229.365112 330.648712,242.197388 
	C334.807617,244.562317 336.358490,247.505157 336.304993,252.237320 
	C336.096100,270.721161 336.340729,289.210114 336.128967,307.693909 
	C336.080688,311.908173 336.963135,313.496704 341.570923,313.420868 
	C358.553619,313.141296 375.543762,313.319550 392.531006,313.293213 
	C394.113983,313.290741 395.696594,313.059113 397.689209,312.901428 
	C397.689209,310.607056 397.689240,308.799744 397.689209,306.992432 
	C397.689117,289.672028 397.662018,272.351562 397.695587,255.031235 
	C397.739838,232.197510 389.032440,213.245163 372.108459,198.125153 
	C351.052521,179.313629 325.492523,170.288116 298.303711,165.213394 
	C294.833862,164.565765 290.927673,165.573029 287.345306,166.364395 
	C281.355988,167.687454 275.530975,169.794083 269.518890,170.966034 
	C256.135834,173.574844 243.030212,171.362350 229.542038,167.435730 
M121.904251,389.579407 
	C120.264076,388.710541 118.623901,387.841675 116.310158,386.615997 
	C116.310158,409.331879 116.400337,430.969147 116.219818,452.604126 
	C116.190338,456.137177 117.472641,457.934418 120.399055,459.597443 
	C138.050278,469.628448 155.598221,479.841095 173.192078,489.973297 
	C174.428696,490.685455 175.756607,491.239136 177.481842,492.081116 
	C177.614792,490.797058 177.763840,490.026276 177.764359,489.255371 
	C177.778687,467.934662 177.873260,446.612793 177.614960,425.295227 
	C177.592072,423.405853 175.680542,420.822998 173.923492,419.782013 
	C156.886887,409.688568 139.695786,399.855865 121.904251,389.579407 
M385.151978,393.652130 
	C370.035278,402.378540 354.957947,411.174561 339.764984,419.766052 
	C337.082916,421.282715 336.135162,422.985626 336.153748,426.032043 
	C336.280731,446.836060 336.217865,467.641235 336.228577,488.446014 
	C336.229126,489.527100 336.342163,490.608093 336.436188,492.284241 
	C338.455231,491.241943 339.920044,490.558655 341.315186,489.754456 
	C358.741882,479.709259 376.111023,469.562622 393.620575,459.664246 
	C396.842651,457.842773 397.794647,455.721466 397.764557,452.151093 
	C397.596222,432.179901 397.688354,412.206573 397.674438,392.233978 
	C397.673309,390.633148 397.542969,389.032349 397.439636,386.679260 
	C393.167145,389.081879 389.465881,391.163269 385.151978,393.652130 
M286.422729,386.069916 
	C299.808594,393.788513 313.253540,401.407806 326.533173,409.305084 
	C329.369202,410.991638 331.357056,410.960052 334.169189,409.307922 
	C351.790039,398.955566 369.534119,388.813019 387.230133,378.588440 
	C388.459473,377.878174 389.630066,377.066284 391.170013,376.083313 
	C390.248688,375.415741 389.773407,375.003632 389.238861,374.693817 
	C370.551086,363.862610 351.897491,352.970520 333.090515,342.350159 
	C331.566162,341.489349 328.599487,341.815765 326.954712,342.744568 
	C308.726013,353.038269 290.623749,363.556000 272.498108,374.031830 
	C271.565369,374.570892 270.730621,375.279541 269.443848,376.199890 
	C275.214172,379.568237 280.493347,382.649872 286.422729,386.069916 
M267.141235,278.649750 
	C283.906158,268.948395 300.671112,259.247040 317.955658,249.244965 
	C316.726074,248.336487 316.137299,247.807816 315.467102,247.419937 
	C296.908966,236.679703 278.382996,225.881943 259.701813,215.359894 
	C258.184326,214.505203 255.217407,214.884720 253.561844,215.819885 
	C235.473129,226.037735 217.507812,236.474167 199.524689,246.878403 
	C198.466217,247.490784 197.542953,248.336914 196.209900,249.333633 
	C213.723770,259.442596 230.967606,268.822144 247.557770,279.242401 
	C254.590622,283.659729 260.235840,284.481537 267.141235,278.649750 
M166.828842,401.682983 
	C171.435715,404.343292 175.941391,407.209839 180.706223,409.548340 
	C182.302002,410.331543 184.988602,410.528381 186.448608,409.703979 
	C205.120132,399.161346 223.660736,388.386810 242.226212,377.656647 
	C242.889771,377.273163 243.467316,376.740784 244.431244,376.018219 
	C243.431427,375.295746 242.832779,374.778442 242.159988,374.389343 
	C223.597290,363.654083 205.067490,352.860016 186.382263,342.342163 
	C184.866425,341.488892 181.900742,341.875000 180.245331,342.811066 
	C162.159286,353.037811 144.196884,363.483368 126.214760,373.893463 
	C125.175537,374.495087 124.256844,375.304901 122.893105,376.302277 
	C137.721405,384.848450 151.969910,393.060425 166.828842,401.682983 
M306.329529,482.165405 
	C312.034454,485.463867 317.739380,488.762299 323.815613,492.275421 
	C324.016022,491.044159 324.200043,490.439392 324.200531,489.834473 
	C324.218445,468.202484 324.300629,446.569611 324.069824,424.940094 
	C324.051117,423.186005 322.270966,420.779419 320.637177,419.816833 
	C302.740540,409.272522 284.713074,398.950073 266.708496,388.589386 
	C265.652283,387.981567 264.487213,387.562988 263.003815,386.888641 
	C263.003815,409.785858 262.934387,432.079498 263.149902,454.370392 
	C263.165344,455.967590 264.918610,458.127808 266.450928,459.039398 
	C279.447205,466.770538 292.579865,474.272491 306.329529,482.165405 
M196.300430,488.830536 
	C213.167282,479.079468 229.994476,469.258484 246.938538,459.643463 
	C249.896271,457.965088 251.115112,456.156219 251.083954,452.647827 
	C250.903442,432.319397 251.000031,411.988525 250.986481,391.658478 
	C250.985535,390.238800 250.852509,388.819214 250.756790,386.921417 
	C249.553757,387.461273 248.799545,387.723938 248.119797,388.115814 
	C229.654144,398.760498 211.147247,409.336121 192.821442,420.216675 
	C191.201538,421.178497 189.943863,424.135773 189.919388,426.183044 
	C189.698135,444.677399 189.789658,463.175507 189.789505,481.672516 
	C189.789474,484.952789 189.789505,488.233063 189.789505,492.380676 
	C192.240814,491.035065 193.940201,490.102234 196.300430,488.830536 
M250.783813,364.501617 
	C250.853790,342.204071 250.994995,319.906067 250.843796,297.610016 
	C250.832993,296.013580 249.024780,293.854797 247.472870,292.933472 
	C234.032730,284.954193 220.462616,277.193695 206.924957,269.378876 
	C201.501083,266.247864 196.061615,263.143951 190.425919,259.911072 
	C190.116974,260.855347 189.853745,261.285278 189.853073,261.715607 
	C189.818451,283.686096 189.766953,305.656830 189.888870,327.626587 
	C189.896210,328.948242 190.974533,330.832489 192.113037,331.494629 
	C211.368011,342.693176 230.711655,353.739288 250.783813,364.501617 
M297.956329,345.467255 
	C305.453064,341.139526 312.873932,336.671570 320.485077,332.555359 
	C323.399963,330.979004 324.303253,329.073608 324.280701,325.842499 
	C324.138733,305.520874 324.214203,285.197815 324.197815,264.875214 
	C324.196655,263.438751 324.035248,262.002380 323.926636,260.206696 
	C322.957764,260.557556 322.324158,260.687836 321.791809,260.994049 
	C303.034393,271.784546 284.249756,282.529358 265.610779,293.521088 
	C264.206268,294.349365 263.129303,296.947754 263.114838,298.733185 
	C262.944275,319.720734 262.999115,340.710114 263.026794,361.699005 
	C263.028168,362.733917 263.326782,363.768463 263.562592,365.291748 
	C275.154419,358.619019 286.243225,352.235870 297.956329,345.467255 
z"/>
<path fill="#5C84D9" opacity="1.000000" stroke="none" 
	d="
M230.062790,167.925507 
	C243.030212,171.362350 256.135834,173.574844 269.518890,170.966034 
	C275.530975,169.794083 281.355988,167.687454 287.345306,166.364395 
	C290.927673,165.573029 294.833862,164.565765 298.303711,165.213394 
	C325.492523,170.288116 351.052521,179.313629 372.108459,198.125153 
	C389.032440,213.245163 397.739838,232.197510 397.695587,255.031235 
	C397.662018,272.351562 397.689117,289.672028 397.689209,306.992432 
	C397.689240,308.799744 397.689209,310.607056 397.689209,312.901428 
	C395.696594,313.059113 394.113983,313.290741 392.531006,313.293213 
	C375.543762,313.319550 358.553619,313.141296 341.570923,313.420868 
	C336.963135,313.496704 336.080688,311.908173 336.128967,307.693909 
	C336.340729,289.210114 336.096100,270.721161 336.304993,252.237320 
	C336.358490,247.505157 334.807617,244.562317 330.648712,242.197388 
	C308.082306,229.365112 285.588806,216.401505 263.204193,203.254990 
	C258.763916,200.647232 255.222900,200.683777 250.775558,203.302475 
	C228.693588,216.304794 206.506393,229.133209 184.192337,241.732590 
	C179.552139,244.352600 177.582108,247.362839 177.669128,252.771606 
	C177.961105,270.920044 177.779938,289.076050 177.779861,307.229156 
	C177.779846,309.022858 177.779846,310.816528 177.779846,313.242371 
	C172.114365,313.242371 167.010742,313.242371 161.445694,312.680176 
	C160.986694,291.319305 161.079315,270.520081 160.953522,249.722168 
	C160.890686,239.331345 163.531433,229.608398 167.881256,220.365845 
	C176.952423,201.091263 192.192581,187.818863 210.526199,177.782928 
	C216.920883,174.282455 223.543991,171.199265 230.062790,167.925507 
z"/>
<path fill="#F7D8AC" opacity="1.000000" stroke="none" 
	d="
M265.056183,17.819241 
	C291.140839,18.860229 317.146454,40.426826 325.461365,67.913589 
	C338.224823,110.105911 309.022705,154.921448 265.386841,158.915680 
	C263.587677,157.528931 262.338013,156.495514 261.039642,155.527390 
	C255.855789,151.662048 250.031631,148.426834 245.573853,143.856766 
	C228.156448,126.000717 219.856171,104.682655 222.940643,79.501396 
	C226.061981,54.019039 238.928085,34.900108 260.738922,21.589733 
	C262.346375,20.608763 263.624786,19.088682 265.056183,17.819241 
z"/>
<path fill="#4676D4" opacity="1.000000" stroke="none" 
	d="
M229.802414,167.680603 
	C223.543991,171.199265 216.920883,174.282455 210.526199,177.782928 
	C192.192581,187.818863 176.952423,201.091263 167.881256,220.365845 
	C163.531433,229.608398 160.890686,239.331345 160.953522,249.722168 
	C161.079315,270.520081 160.986694,291.319305 160.983612,312.591125 
	C146.355118,313.064240 131.727264,313.064240 117.139656,313.064240 
	C116.837944,312.376373 116.472908,311.932037 116.472450,311.487335 
	C116.451088,290.832764 115.882095,270.157440 116.619965,249.529007 
	C117.475258,225.617554 129.394577,207.233459 148.059082,192.982727 
	C169.252304,176.801239 193.800766,168.779388 219.719742,164.561020 
	C222.757431,164.066635 226.256729,166.408630 229.802414,167.680603 
z"/>
<path fill="#EFCC9B" opacity="1.000000" stroke="none" 
	d="
M264.697937,17.606878 
	C263.624786,19.088682 262.346375,20.608763 260.738922,21.589733 
	C238.928085,34.900108 226.061981,54.019039 222.940643,79.501396 
	C219.856171,104.682655 228.156448,126.000717 245.573853,143.856766 
	C250.031631,148.426834 255.855789,151.662048 261.039642,155.527390 
	C262.338013,156.495514 263.587677,157.528931 264.961365,158.871338 
	C250.910599,161.566299 237.603073,158.649384 224.975220,152.374420 
	C194.125809,137.044952 178.692810,101.553391 188.320801,68.461769 
	C197.920364,35.467976 229.859314,14.012310 264.697937,17.606878 
z"/>
<path fill="#F8685A" opacity="1.000000" stroke="none" 
	d="
M122.226524,389.764069 
	C139.695786,399.855865 156.886887,409.688568 173.923492,419.782013 
	C175.680542,420.822998 177.592072,423.405853 177.614960,425.295227 
	C177.873260,446.612793 177.778687,467.934662 177.764359,489.255371 
	C177.763840,490.026276 177.614792,490.797058 177.481842,492.081116 
	C175.756607,491.239136 174.428696,490.685455 173.192078,489.973297 
	C155.598221,479.841095 138.050278,469.628448 120.399055,459.597443 
	C117.472641,457.934418 116.190338,456.137177 116.219818,452.604126 
	C116.400337,430.969147 116.310158,409.331879 116.310158,386.615997 
	C118.623901,387.841675 120.264076,388.710541 122.226524,389.764069 
z"/>
<path fill="#FCBB1C" opacity="1.000000" stroke="none" 
	d="
M385.458313,393.448395 
	C389.465881,391.163269 393.167145,389.081879 397.439636,386.679260 
	C397.542969,389.032349 397.673309,390.633148 397.674438,392.233978 
	C397.688354,412.206573 397.596222,432.179901 397.764557,452.151093 
	C397.794647,455.721466 396.842651,457.842773 393.620575,459.664246 
	C376.111023,469.562622 358.741882,479.709259 341.315186,489.754456 
	C339.920044,490.558655 338.455231,491.241943 336.436188,492.284241 
	C336.342163,490.608093 336.229126,489.527100 336.228577,488.446014 
	C336.217865,467.641235 336.280731,446.836060 336.153748,426.032043 
	C336.135162,422.985626 337.082916,421.282715 339.764984,419.766052 
	C354.957947,411.174561 370.035278,402.378540 385.458313,393.448395 
z"/>
<path fill="#FDE44E" opacity="1.000000" stroke="none" 
	d="
M286.097626,385.900726 
	C280.493347,382.649872 275.214172,379.568237 269.443848,376.199890 
	C270.730621,375.279541 271.565369,374.570892 272.498108,374.031830 
	C290.623749,363.556000 308.726013,353.038269 326.954712,342.744568 
	C328.599487,341.815765 331.566162,341.489349 333.090515,342.350159 
	C351.897491,352.970520 370.551086,363.862610 389.238861,374.693817 
	C389.773407,375.003632 390.248688,375.415741 391.170013,376.083313 
	C389.630066,377.066284 388.459473,377.878174 387.230133,378.588440 
	C369.534119,388.813019 351.790039,398.955566 334.169189,409.307922 
	C331.357056,410.960052 329.369202,410.991638 326.533173,409.305084 
	C313.253540,401.407806 299.808594,393.788513 286.097626,385.900726 
z"/>
<path fill="#7FDFB6" opacity="1.000000" stroke="none" 
	d="
M266.815948,278.821686 
	C260.235840,284.481537 254.590622,283.659729 247.557770,279.242401 
	C230.967606,268.822144 213.723770,259.442596 196.209900,249.333633 
	C197.542953,248.336914 198.466217,247.490784 199.524689,246.878403 
	C217.507812,236.474167 235.473129,226.037735 253.561844,215.819885 
	C255.217407,214.884720 258.184326,214.505203 259.701813,215.359894 
	C278.382996,225.881943 296.908966,236.679703 315.467102,247.419937 
	C316.137299,247.807816 316.726074,248.336487 317.955658,249.244965 
	C300.671112,259.247040 283.906158,268.948395 266.815948,278.821686 
z"/>
<path fill="#FB796D" opacity="1.000000" stroke="none" 
	d="
M166.523621,401.477722 
	C151.969910,393.060425 137.721405,384.848450 122.893105,376.302277 
	C124.256844,375.304901 125.175537,374.495087 126.214760,373.893463 
	C144.196884,363.483368 162.159286,353.037811 180.245331,342.811066 
	C181.900742,341.875000 184.866425,341.488892 186.382263,342.342163 
	C205.067490,352.860016 223.597290,363.654083 242.159988,374.389343 
	C242.832779,374.778442 243.431427,375.295746 244.431244,376.018219 
	C243.467316,376.740784 242.889771,377.273163 242.226212,377.656647 
	C223.660736,388.386810 205.120132,399.161346 186.448608,409.703979 
	C184.988602,410.528381 182.302002,410.331543 180.706223,409.548340 
	C175.941391,407.209839 171.435715,404.343292 166.523621,401.477722 
z"/>
<path fill="#F9D41B" opacity="1.000000" stroke="none" 
	d="
M306.000580,482.004333 
	C292.579865,474.272491 279.447205,466.770538 266.450928,459.039398 
	C264.918610,458.127808 263.165344,455.967590 263.149902,454.370392 
	C262.934387,432.079498 263.003815,409.785858 263.003815,386.888641 
	C264.487213,387.562988 265.652283,387.981567 266.708496,388.589386 
	C284.713074,398.950073 302.740540,409.272522 320.637177,419.816833 
	C322.270966,420.779419 324.051117,423.186005 324.069824,424.940094 
	C324.300629,446.569611 324.218445,468.202484 324.200531,489.834473 
	C324.200043,490.439392 324.016022,491.044159 323.815613,492.275421 
	C317.739380,488.762299 312.034454,485.463867 306.000580,482.004333 
z"/>
<path fill="#E75E51" opacity="1.000000" stroke="none" 
	d="
M195.970001,488.999939 
	C193.940201,490.102234 192.240814,491.035065 189.789505,492.380676 
	C189.789505,488.233063 189.789474,484.952789 189.789505,481.672516 
	C189.789658,463.175507 189.698135,444.677399 189.919388,426.183044 
	C189.943863,424.135773 191.201538,421.178497 192.821442,420.216675 
	C211.147247,409.336121 229.654144,398.760498 248.119797,388.115814 
	C248.799545,387.723938 249.553757,387.461273 250.756790,386.921417 
	C250.852509,388.819214 250.985535,390.238800 250.986481,391.658478 
	C251.000031,411.988525 250.903442,432.319397 251.083954,452.647827 
	C251.115112,456.156219 249.896271,457.965088 246.938538,459.643463 
	C229.994476,469.258484 213.167282,479.079468 195.970001,488.999939 
z"/>
<path fill="#60D9A7" opacity="1.000000" stroke="none" 
	d="
M250.409744,364.660400 
	C230.711655,353.739288 211.368011,342.693176 192.113037,331.494629 
	C190.974533,330.832489 189.896210,328.948242 189.888870,327.626587 
	C189.766953,305.656830 189.818451,283.686096 189.853073,261.715607 
	C189.853745,261.285278 190.116974,260.855347 190.425919,259.911072 
	C196.061615,263.143951 201.501083,266.247864 206.924957,269.378876 
	C220.462616,277.193695 234.032730,284.954193 247.472870,292.933472 
	C249.024780,293.854797 250.832993,296.013580 250.843796,297.610016 
	C250.994995,319.906067 250.853790,342.204071 250.409744,364.660400 
z"/>
<path fill="#4AC894" opacity="1.000000" stroke="none" 
	d="
M297.644165,345.659973 
	C286.243225,352.235870 275.154419,358.619019 263.562592,365.291748 
	C263.326782,363.768463 263.028168,362.733917 263.026794,361.699005 
	C262.999115,340.710114 262.944275,319.720734 263.114838,298.733185 
	C263.129303,296.947754 264.206268,294.349365 265.610779,293.521088 
	C284.249756,282.529358 303.034393,271.784546 321.791809,260.994049 
	C322.324158,260.687836 322.957764,260.557556 323.926636,260.206696 
	C324.035248,262.002380 324.196655,263.438751 324.197815,264.875214 
	C324.214203,285.197815 324.138733,305.520874 324.280701,325.842499 
	C324.303253,329.073608 323.399963,330.979004 320.485077,332.555359 
	C312.873932,336.671570 305.453064,341.139526 297.644165,345.659973 
z"/>
</svg>